<svg height="512" viewBox="0 0 64 64" width="512" xmlns="http://www.w3.org/2000/svg">
    <g id="Filled_outline" data-name="Filled outline">
        <path d="m18 20-6 2-6-2v-3h12z" fill="#394d5c"/>
        <path d="m52 57h-42a3.154 3.154 0 0 1 -3-2l-1-4h-3v-4h58l-5 4-1 3c-.241 1.447-1.533 3-3 3z" fill="#7d8d9c"/>
        <path d="m29 31v-3l-3-2h-3l-2 2v3z" fill="#aabece"/>
        <path d="m29 23 3 2-3 3-3-2z" fill="#394d5c"/>
        <path d="m3 47v4h3 50l5-4z" fill="#394d5c"/>
        <path d="m29 41h22v6h-22z" fill="#7d8d9c"/>
        <path d="m31 37h4v4h-4z" fill="#aabece"/>
        <path d="m35 37h4v4h-4z" fill="#5a6470"/>
        <path d="m39 37h4v4h-4z" fill="#aabece"/>
        <path d="m43 37h4v4h-4z" fill="#5a6470"/>
        <path d="m47 37h14v4h-14z" fill="#394d5c"/>
        <path d="m34 29h12v8h-12z" fill="#7d8d9c"/>
        <path d="m46 29h12v4h-12z" fill="#394d5c"/>
        <path d="m37 32h2v2h-2z" fill="#fff69a"/>
        <path d="m41 32h2v2h-2z" fill="#fff69a"/>
        <path d="m46 29h-12l2-4h8z" fill="#394d5c"/>
        <path d="m21 41h8v6h-8z" fill="#aabece"/>
        <path d="m21 31h8v6h-8z" fill="#7d8d9c"/>
        <path d="m23 37h4v4h-4z" fill="#394d5c"/>
        <path d="m36 13c-2 0-2 1-4 1s-2-1-4-1v5c2 0 2 1 4 1s2-1 4-1 2 1 4 1v-5c-2 0-2-1-4-1z" fill="#dd3e46"/>
        <g fill="#f4f4e6">
            <circle cx="32" cy="53" r="2"/>
            <circle cx="16" cy="53" r="2"/>
            <circle cx="24" cy="53" r="2"/>
        </g>
        <path d="m61 36h-14v-2h11a1 1 0 0 0 1-1v-4a1 1 0 0 0 -1-1h-11.382l-1.718-3.447a1 1 0 0 0 -.9-.553h-3v-10a1 1 0 0 0 -1-1 2.9 2.9 0 0 1 -1.554-.395 5.257 5.257 0 0 0 -4.9 0 3.248 3.248 0 0 1 -3.1 0 4.855 4.855 0 0 0 -2.446-.605 1 1 0 0 0 -1 1v5a1 1 0 0 0 1 1 2.9 2.9 0 0 1 1.55.394 5.245 5.245 0 0 0 4.893 0 3.256 3.256 0 0 1 3.109 0 5.2 5.2 0 0 0 1.448.51v4.096h-3a1 1 0 0 0 -.9.553l-1.99 4a.978.978 0 0 0 -.11.447v7h-2a1 1 0 0 0 -1 1v3h-2v-2h1a1 1 0 0 0 1-1v-8.586l2.707-2.707a1 1 0 0 0 -.152-1.539l-3-2a1 1 0 0 0 -1.262.125l-2.707 2.707h-2.586a1 1 0 0 0 -.707.293l-2 2a1 1 0 0 0 -.293.707v9a1 1 0 0 0 1 1h1v2h-1a1 1 0 0 0 -1 1v5h-1.406l-5.594-10.255v-5.509l4.509-9.018.807-.269a1 1 0 0 0 .684-.949v-3a1 1 0 0 0 -1-1h-.532l-4.468-5.362v-.638h2v-2h-2v-2h-2v2h-2v2h2v.638l-4.468 5.362h-.532a1 1 0 0 0 -1 1v3a1 1 0 0 0 .684.949l.807.269 4.509 9.018v5.509l-5.594 10.255h-2.406a1 1 0 0 0 -1 1v4a1 1 0 0 0 1 1h2.22l.831 3.316a4.137 4.137 0 0 0 3.949 2.684h42c2.037 0 3.631-1.932 3.972-3.753l.883-2.651 4.77-3.815a1 1 0 0 0 -.625-1.781h-9v-4h9a1 1 0 0 0 1-1v-4a1 1 0 0 0 -1-1zm-14-6h10v2h-10zm-8.554-12.395a5.257 5.257 0 0 0 -4.9 0 3.248 3.248 0 0 1 -3.1 0 5 5 0 0 0 -1.446-.52v-2.938a4.639 4.639 0 0 1 .55.247 5.245 5.245 0 0 0 4.893 0 3.256 3.256 0 0 1 3.109 0 5.04 5.04 0 0 0 1.448.52v2.939a4.709 4.709 0 0 1 -.554-.248zm-1.828 8.395h6.764l1 2h-8.764zm-1.618 4h10v6h-10zm11 8v2h-2v-2zm-4 0v2h-2v-2zm-4 0v2h-2v-2zm-6 0h2v2h-2zm-2 4h20v4h-20zm-.873-17.713 1.3.868-1.557 1.558-1.3-.868zm-7.127 4.127 1.414-1.414h2.286l2.3 1.535v1.465h-6zm0 3.586h6v4h-6zm4 6v2h-2v-2zm-4 4h6v4h-6zm-5.685 4h-3.315v-6.078zm-3.315-20.236v-3.043l1.826-.609zm0-12 1.865 2.236h-1.865zm-2 0v2.236h-1.865zm-4 5.515v-1.279h10v1.279l-5 1.667zm2.174 2.833 1.826.609v3.043zm1.826 17.81v6.078h-3.315zm43.051 13.762a.979.979 0 0 0 -.037.151c-.167 1.001-1.083 2.165-2.014 2.165h-42a2.149 2.149 0 0 1 -2.03-1.243l-.689-2.757h5.9a2.966 2.966 0 0 0 -.181 1 3 3 0 0 0 6 0 2.966 2.966 0 0 0 -.184-1h2.368a2.966 2.966 0 0 0 -.184 1 3 3 0 0 0 6 0 2.966 2.966 0 0 0 -.184-1h2.368a2.966 2.966 0 0 0 -.184 1 3 3 0 0 0 6 0 2.966 2.966 0 0 0 -.184-1h19.8zm-39.051-.684a1 1 0 1 1 1 1 1 1 0 0 1 -1-1zm8 0a1 1 0 1 1 1 1 1 1 0 0 1 -1-1zm8 0a1 1 0 1 1 1 1 1 1 0 0 1 -1-1zm27.149-5-2.5 2h-51.649v-2zm1.851-8h-12v-2h12z"/>
        <path d="m37 32h2v2h-2z"/>
        <path d="m41 32h2v2h-2z"/>
    </g>
</svg>