<svg height="512" viewBox="0 0 64 64" width="512" xmlns="http://www.w3.org/2000/svg"><g id="Filled_outline" data-name="Filled outline"><path d="m17 15h4v7h-4z" fill="#3881a5"/><path d="m3 43 2.4 6h-2.4v4h47c3.161 0 6.373-1.289 8-4l3-6z" fill="#195c85"/><path d="m59 47 2-4h-58l1.6 4z" fill="#aabece"/><path d="m45 43v-3l2-2h4l5 5z" fill="#3881a5"/><path d="m51.672 35.379h5.657v4.243h-5.657z" fill="#195c85" transform="matrix(.707 -.707 .707 .707 -10.554 49.521)"/><path d="m39 35h-24l-2 4v4h28v-4z" fill="#195c85"/><path d="m17 31h20v4h-20z" fill="#3881a5"/><path d="m25 27h10v4h-10z" fill="#195c85"/><path d="m29 23h4v4h-4z" fill="#aabece"/><path d="m19 31-2-4v-5h4v3l4 6z" fill="#aabece"/><path d="m3 54h47a10.064 10.064 0 0 0 8.9-4.553l3-6a1 1 0 0 0 -.9-1.447h-4.586l-1-1 3.293-3.293a1 1 0 0 0 0-1.414l-.793-.793 2.793-2.793-1.414-1.414-2.793 2.793-.793-.793a1 1 0 0 0 -1.414 0l-3.707 3.707h-3.586a1 1 0 0 0 -.707.293l-2 2a1 1 0 0 0 -.293.707v2h-2v-3a1 1 0 0 0 -.1-.447l-2-4a1 1 0 0 0 -.9-.553h-1v-3a1 1 0 0 0 -1-1h-1v-3a1 1 0 0 0 -1-1h-1v-3a1 1 0 0 0 -1-1h-4a1 1 0 0 0 -1 1v3h-3a1 1 0 0 0 -1 1v.7l-2-3v-1.7h5v-2h-1.465l-3.335-5h1.8v-2h-4v-2h-2v2h-4v2h1.8l-3.333 5h-1.467v2h5v4a1 1 0 0 0 .105.447l1.277 2.553h-.382a1 1 0 0 0 -1 1v3h-1a1 1 0 0 0 -.895.553l-2 4a1 1 0 0 0 -.105.447v3h-2v-2h-2v2h-2v-2h-2v2h-1a1 1 0 0 0 -.929 1.372l1.852 4.628h-.923a1 1 0 0 0 -1 1v4a1 1 0 0 0 1 1zm19-34.7 1.132 1.7h-1.132zm-6 1.7h-1.132l1.132-1.7zm39 14.414 1.586 1.586-2.586 2.586-1.586-1.586zm-9 5 1.414-1.414h3.172l3 3h-7.586zm-16-16.414h2v2h-2zm-4 4h8v2h-8zm-8-12h2v5h-2zm0 7h2v2a1.006 1.006 0 0 0 .168.555l2.963 4.445h-3.513l-1.618-3.236zm0 9h18v2h-18zm-4 8h10v-2h-9.382l1-2h22.764l1.618 3.236v2.764h-26zm45.382 4-1 2h-53.105l-.8-2zm-55.382 6h1.4a1 1 0 0 0 .929-1.372l-.252-.628h51.308l-.242.485c-1.321 2.201-3.991 3.515-7.143 3.515h-46z"/><path d="m26 38h2v2h-2z"/><path d="m30 38h2v2h-2z"/></g></svg>