<svg id="Layer_1" enable-background="new 0 0 512 512" height="512" viewBox="0 0 512 512" width="512"
     xmlns="http://www.w3.org/2000/svg">
    <g>
        <path d="m256 272.702c8.36 0 16.271 2.37 23 6.565v-279.267h-46.001v279.267c6.73-4.195 14.641-6.565 23.001-6.565z"/>
        <path d="m166 0c-8.284 0-15 6.716-15 15v220.695c0 4.528 2.045 8.813 5.565 11.661l46.434 37.568v-284.924z"/>
        <path d="m355.434 247.356c3.521-2.848 5.565-7.134 5.565-11.661v-220.695c0-8.284-6.716-15-15-15h-37v284.925z"/>
        <path d="m351.367 370.99h-62.366l-19.272-59.313c-1.933-5.948-7.475-9.975-13.729-9.975s-11.797 4.027-13.729 9.975l-19.272 59.313h-62.366c-6.254 0-11.797 4.027-13.729 9.975-1.933 5.948.184 12.464 5.244 16.14l50.455 36.658-19.272 59.313c-1.933 5.948.184 12.464 5.244 16.14 2.53 1.838 10.284 5.22 16.97 0l50.455-36.658 50.456 36.658c5.058 3.676 11.911 3.676 16.97 0 5.06-3.676 7.177-10.192 5.244-16.14l-19.272-59.313 50.455-36.658c5.06-3.676 7.177-10.192 5.244-16.14s-7.476-9.975-13.73-9.975z"/>
    </g>
</svg>