<svg height="511pt" viewBox="1 -48 511.999 511" width="511pt" xmlns="http://www.w3.org/2000/svg">
    <path d="m489.25.5h-466.796875c-12.378906 0-22.453125 10.074219-22.453125 22.453125v369.191406c0 12.382813 10.074219 22.453125 22.453125 22.453125h467.089844c12.382812 0 22.457031-10.070312 22.457031-22.453125v-368.894531c0-12.546875-10.203125-22.75-22.75-22.75zm.296875 399.128906h-467.09375c-4.125 0-7.484375-3.355468-7.484375-7.484375v-131.097656h154.414062c4.132813 0 7.484376-3.351563 7.484376-7.484375s-3.351563-7.484375-7.484376-7.484375h-154.414062v-223.125c0-4.125 3.359375-7.484375 7.484375-7.484375h466.796875c4.289062 0 7.777344 3.492188 7.777344 7.78125v222.828125h-232.414063v-203.335937c0-4.132813-3.351562-7.484376-7.484375-7.484376-4.136718 0-7.488281 3.351563-7.488281 7.484376v203.335937h-14.585937v-38.1875c0-6.765625-5.507813-12.269531-12.273438-12.269531h-13.640625c-6.765625 0-12.273437 5.503906-12.273437 12.269531v70.859375h-23.085938c-7.652344 0-13.878906 6.226562-13.878906 13.878906v13.910156h-38.234375c-3.894531 0-7.542969 1.722657-10.011719 4.734376-2.472656 3.007812-3.453125 6.925781-2.695312 10.742187l8.257812 41.628906c1.195312 6.046875 6.542969 10.4375 12.707031 10.4375h254.035157c5.601562 0 10.546874-3.574219 12.304687-8.890625l13.761719-41.632812c1.300781-3.9375.628906-8.292969-1.800782-11.65625-2.429687-3.359375-6.355468-5.367188-10.503906-5.367188h-73.792968v-13.90625c0-7.652344-6.226563-13.878906-13.878907-13.878906h-74.996093v-17.703125h261.976562v131.097656c0 4.128907-3.359375 7.484375-7.484375 7.484375zm-180.585937-93.089844h-4.691407c-4.132812 0-7.484375 3.347657-7.484375 7.484376 0 4.132812 3.351563 7.484374 7.484375 7.484374h90.667969l-12.429688 37.605469h-250.929687l-7.457031-37.605469h143.890625c4.132812 0 7.484375-3.351562 7.484375-7.484374 0-4.136719-3.351563-7.484376-7.484375-7.484376h-93.140625v-12.816406h134.089844zm-97.121094-27.789062v-68.160156h8.242187v68.160156zm0 0"
          fill="var(--secondary-text-color)"/>
    <path d="m153.328125 50.332031c-10.210937 0-18.890625 6.65625-21.941406 15.859375-3.054688-9.199218-11.734375-15.859375-21.945313-15.859375-12.746094 0-23.117187 10.371094-23.117187 23.117188 0 12.746093 10.371093 23.117187 23.117187 23.117187 10.210938 0 18.894532-6.65625 21.945313-15.859375 3.050781 9.203125 11.730469 15.859375 21.941406 15.859375 12.746094 0 23.117187-10.371094 23.117187-23.117187 0-12.746094-10.371093-23.117188-23.117187-23.117188zm-43.886719 31.265625c-4.492187 0-8.148437-3.65625-8.148437-8.148437 0-4.492188 3.65625-8.148438 8.148437-8.148438 4.492188 0 8.148438 3.65625 8.148438 8.148438 0 4.492187-3.65625 8.148437-8.148438 8.148437zm43.886719 0c-4.492187 0-8.148437-3.65625-8.148437-8.148437 0-4.492188 3.65625-8.148438 8.148437-8.148438s8.148437 3.65625 8.148437 8.148438c0 4.492187-3.65625 8.148437-8.148437 8.148437zm0 0"
          fill="#fafafa"/>
    <path d="m153.328125 184.507812c-12.746094 0-23.117187 10.371094-23.117187 23.117188s10.371093 23.117188 23.117187 23.117188 23.117187-10.371094 23.117187-23.117188-10.371093-23.117188-23.117187-23.117188zm0 31.265626c-4.492187 0-8.148437-3.65625-8.148437-8.148438s3.65625-8.148438 8.148437-8.148438 8.148437 3.65625 8.148437 8.148438-3.65625 8.148438-8.148437 8.148438zm0 0"
          fill="#fafafa"/>
    <path d="m65.550781 184.507812c-12.746093 0-23.117187 10.371094-23.117187 23.117188s10.371094 23.117188 23.117187 23.117188c12.746094 0 23.117188-10.371094 23.117188-23.117188s-10.371094-23.117188-23.117188-23.117188zm0 31.265626c-4.492187 0-8.148437-3.65625-8.148437-8.148438s3.65625-8.148438 8.148437-8.148438c4.492188 0 8.148438 3.65625 8.148438 8.148438s-3.65625 8.148438-8.148438 8.148438zm0 0"
          fill="#fafafa"/>
    <path d="m204.351562 145.71875c12.75 0 23.121094-10.371094 23.121094-23.117188 0-12.75-10.371094-23.117187-23.121094-23.117187-12.746093 0-23.117187 10.367187-23.117187 23.117187 0 12.746094 10.371094 23.117188 23.117187 23.117188zm0-31.265625c4.496094 0 8.148438 3.65625 8.148438 8.148437 0 4.492188-3.652344 8.148438-8.148438 8.148438-4.492187 0-8.148437-3.65625-8.148437-8.148438 0-4.492187 3.65625-8.148437 8.148437-8.148437zm0 0"
          fill="#fafafa"/>
    <path d="m65.550781 67.066406c12.746094 0 23.117188-10.371094 23.117188-23.117187 0-12.746094-10.371094-23.121094-23.117188-23.121094-12.746093 0-23.117187 10.371094-23.117187 23.121094 0 12.746093 10.371094 23.117187 23.117187 23.117187zm0-31.265625c4.492188 0 8.148438 3.65625 8.148438 8.148438 0 4.492187-3.65625 8.148437-8.148438 8.148437-4.492187 0-8.148437-3.65625-8.148437-8.148437 0-4.496094 3.65625-8.148438 8.148437-8.148438zm0 0"
          fill="#fafafa"/>
    <path d="m108.171875 143.402344c-12.746094 0-23.117187 10.371094-23.117187 23.121094 0 12.746093 10.371093 23.117187 23.117187 23.117187s23.117187-10.371094 23.117187-23.117187c0-12.75-10.371093-23.121094-23.117187-23.121094zm0 31.265625c-4.492187 0-8.148437-3.652344-8.148437-8.144531 0-4.496094 3.65625-8.148438 8.148437-8.148438s8.148437 3.652344 8.148437 8.148438c0 4.492187-3.65625 8.144531-8.148437 8.144531zm0 0"
          fill="#fafafa"/>
    <path d="m292.546875 133.882812h16.304687c3.824219 32.726563 30.027344 58.710938 62.859376 62.175782v16.988281c0 4.132813 3.351562 7.484375 7.484374 7.484375 4.136719 0 7.488282-3.351562 7.488282-7.484375v-16.988281c32.832031-3.464844 59.035156-29.449219 62.859375-62.175782h16.304687c4.132813 0 7.484375-3.351562 7.484375-7.484374 0-4.136719-3.351562-7.484376-7.484375-7.484376h-16.132812c-3.15625-33.464843-29.675782-60.222656-63.03125-63.742187v-15.421875c0-4.136719-3.351563-7.488281-7.488282-7.488281-4.132812 0-7.484374 3.351562-7.484374 7.488281v15.421875c-33.355469 3.519531-59.875 30.28125-63.03125 63.742187h-16.132813c-4.132813 0-7.484375 3.347657-7.484375 7.484376 0 4.132812 3.351562 7.484374 7.484375 7.484374zm31.394531 0h19.945313c3.191406 13.628907 14.085937 24.328126 27.828125 27.222657v19.867187c-24.570313-3.304687-44.128906-22.628906-47.773438-47.089844zm62.742188 0h12.144531c-2.265625 5.363282-6.679687 9.585938-12.144531 11.648438zm0-14.96875v-13.214843c5.984375 2.257812 10.691406 7.121093 12.71875 13.214843zm-14.972656 0h-12.71875c2.027343-6.09375 6.734374-10.957031 12.71875-13.214843zm0 14.96875v11.648438c-5.464844-2.0625-9.875-6.285156-12.144532-11.648438zm14.972656 47.089844v-19.867187c13.742187-2.894531 24.632812-13.59375 27.824218-27.222657h19.949219c-3.644531 24.460938-23.203125 43.785157-47.773437 47.089844zm47.972656-62.058594h-19.820312c-2.695313-14.375-13.890626-25.785156-28.152344-28.789062v-19.867188c25.089844 3.375 44.945312 23.457032 47.972656 48.65625zm-62.945312-48.65625v19.867188c-14.261719 3.003906-25.457032 14.414062-28.152344 28.789062h-19.820313c3.03125-25.199218 22.882813-45.28125 47.972657-48.65625zm0 0"
          fill="#DB7093"/>
</svg>
